# xmcd
#
# Track frame offsets:
#	150
#	11761
#	22087
#	35303
#	48248
#	57900
#	78200
#	90012
#	102297
#	114044
#
# Disc length: 1692 seconds
# Revision: 0
# Processed by: cddbd v1.5.2PL0 Copyright (c) Steve Scherf et al.
# Submitted via: dBpowerAMP V12.0
#
DISCID=64069a0a
DTITLE=Gypsy Carns - Tango Blues
DYEAR=1900
DGENRE=
TTITLE0=Angel Caroline
TTITLE1=The Boot Boogie
TTITLE2=Luna Jane
TTITLE3=Kirra Leialani
TTITLE4=Jacinda
TTITLE5=Moon and Stars
TTITLE6=Texas Tom
TTITLE7=Mykal's Delight
TTITLE8=Robbin
TTITLE9=Ezra Fire Wheel
EXTD=
EXTT0=
EXTT1=
EXTT2=
EXTT3=
EXTT4=
EXTT5=
EXTT6=
EXTT7=
EXTT8=
EXTT9=
PLAYORDER=
